<?xml version="1.0" encoding="UTF-8" standalone="no"?>
<!DOCTYPE svg PUBLIC "-//W3C//DTD SVG 1.1//EN"
 "http://www.w3.org/Graphics/SVG/1.1/DTD/svg11.dtd">
<!-- Generated by graphviz version 12.0.0 (0)
 -->
<!-- Title: Tree Pages: 1 -->
<svg width="1172pt" height="313pt"
 viewBox="0.00 0.00 1172.25 313.00" xmlns="http://www.w3.org/2000/svg" xmlns:xlink="http://www.w3.org/1999/xlink">
<g id="graph0" class="graph" transform="scale(1 1) rotate(0) translate(4 309)">
<title>Tree</title>
<polygon fill="white" stroke="none" points="-4,4 -4,-309 1168.25,-309 1168.25,4 -4,4"/>
<!-- 0 -->
<g id="node1" class="node">
<title>0</title>
<polygon fill="none" stroke="black" points="691.62,-305 428.88,-305 428.88,-252 691.62,-252 691.62,-305"/>
<text text-anchor="middle" x="560.25" y="-287.7" font-family="Helvetica,sans-Serif" font-size="14.00">marital.status_Married&#45;civ&#45;spouse &lt;= 0.5</text>
<text text-anchor="middle" x="560.25" y="-272.7" font-family="Helvetica,sans-Serif" font-size="14.00">counts = [19744, 6304]</text>
<text text-anchor="middle" x="560.25" y="-257.7" font-family="Helvetica,sans-Serif" font-size="14.00">class = 0</text>
</g>
<!-- 1 -->
<g id="node2" class="node">
<title>1</title>
<polygon fill="none" stroke="black" points="501.5,-216 355,-216 355,-163 501.5,-163 501.5,-216"/>
<text text-anchor="middle" x="428.25" y="-198.7" font-family="Helvetica,sans-Serif" font-size="14.00">capital.gain &lt;= 0.794</text>
<text text-anchor="middle" x="428.25" y="-183.7" font-family="Helvetica,sans-Serif" font-size="14.00">counts = [13149, 922]</text>
<text text-anchor="middle" x="428.25" y="-168.7" font-family="Helvetica,sans-Serif" font-size="14.00">class = 0</text>
</g>
<!-- 0&#45;&gt;1 -->
<g id="edge1" class="edge">
<title>0&#45;&gt;1</title>
<path fill="none" stroke="black" d="M521,-251.63C507.16,-242.51 491.43,-232.14 476.91,-222.57"/>
<polygon fill="black" stroke="black" points="479.11,-219.83 468.84,-217.25 475.26,-225.68 479.11,-219.83"/>
<text text-anchor="middle" x="472.61" y="-235.11" font-family="Helvetica,sans-Serif" font-size="14.00">True</text>
</g>
<!-- 8 -->
<g id="node9" class="node">
<title>8</title>
<polygon fill="none" stroke="black" points="817.75,-216 648.75,-216 648.75,-163 817.75,-163 817.75,-216"/>
<text text-anchor="middle" x="733.25" y="-198.7" font-family="Helvetica,sans-Serif" font-size="14.00">capital.gain &lt;= 0.531</text>
<text text-anchor="middle" x="733.25" y="-183.7" font-family="Helvetica,sans-Serif" font-size="14.00">counts = [6595.0, 5382.0]</text>
<text text-anchor="middle" x="733.25" y="-168.7" font-family="Helvetica,sans-Serif" font-size="14.00">class = 0</text>
</g>
<!-- 0&#45;&gt;8 -->
<g id="edge8" class="edge">
<title>0&#45;&gt;8</title>
<path fill="none" stroke="black" d="M611.69,-251.63C630.52,-242.16 652.01,-231.35 671.64,-221.48"/>
<polygon fill="black" stroke="black" points="673,-224.72 680.36,-217.1 669.85,-218.46 673,-224.72"/>
<text text-anchor="middle" x="673.86" y="-234.35" font-family="Helvetica,sans-Serif" font-size="14.00">False</text>
</g>
<!-- 2 -->
<g id="node3" class="node">
<title>2</title>
<polygon fill="none" stroke="black" points="307.5,-127 161,-127 161,-74 307.5,-74 307.5,-127"/>
<text text-anchor="middle" x="234.25" y="-109.7" font-family="Helvetica,sans-Serif" font-size="14.00">education &lt;= 12.5</text>
<text text-anchor="middle" x="234.25" y="-94.7" font-family="Helvetica,sans-Serif" font-size="14.00">counts = [13140, 682]</text>
<text text-anchor="middle" x="234.25" y="-79.7" font-family="Helvetica,sans-Serif" font-size="14.00">class = 0</text>
</g>
<!-- 1&#45;&gt;2 -->
<g id="edge2" class="edge">
<title>1&#45;&gt;2</title>
<path fill="none" stroke="black" d="M370.31,-162.51C348.91,-152.92 324.47,-141.96 302.26,-132"/>
<polygon fill="black" stroke="black" points="303.83,-128.87 293.28,-127.97 300.97,-135.26 303.83,-128.87"/>
</g>
<!-- 5 -->
<g id="node6" class="node">
<title>5</title>
<polygon fill="none" stroke="black" points="486.5,-127 370,-127 370,-74 486.5,-74 486.5,-127"/>
<text text-anchor="middle" x="428.25" y="-109.7" font-family="Helvetica,sans-Serif" font-size="14.00">age &lt;= &#45;1.364</text>
<text text-anchor="middle" x="428.25" y="-94.7" font-family="Helvetica,sans-Serif" font-size="14.00">counts = [9, 240]</text>
<text text-anchor="middle" x="428.25" y="-79.7" font-family="Helvetica,sans-Serif" font-size="14.00">class = 1</text>
</g>
<!-- 1&#45;&gt;5 -->
<g id="edge5" class="edge">
<title>1&#45;&gt;5</title>
<path fill="none" stroke="black" d="M428.25,-162.87C428.25,-155.24 428.25,-146.72 428.25,-138.51"/>
<polygon fill="black" stroke="black" points="431.75,-138.76 428.25,-128.76 424.75,-138.76 431.75,-138.76"/>
</g>
<!-- 3 -->
<g id="node4" class="node">
<title>3</title>
<polygon fill="none" stroke="black" points="146.5,-38 0,-38 0,0 146.5,0 146.5,-38"/>
<text text-anchor="middle" x="73.25" y="-20.7" font-family="Helvetica,sans-Serif" font-size="14.00">counts = [10871, 311]</text>
<text text-anchor="middle" x="73.25" y="-5.7" font-family="Helvetica,sans-Serif" font-size="14.00">class = 0</text>
</g>
<!-- 2&#45;&gt;3 -->
<g id="edge3" class="edge">
<title>2&#45;&gt;3</title>
<path fill="none" stroke="black" d="M181.98,-73.69C162.21,-63.93 139.84,-52.88 120.55,-43.36"/>
<polygon fill="black" stroke="black" points="122.36,-40.35 111.84,-39.06 119.26,-46.62 122.36,-40.35"/>
</g>
<!-- 4 -->
<g id="node5" class="node">
<title>4</title>
<polygon fill="none" stroke="black" points="303.75,-38 164.75,-38 164.75,0 303.75,0 303.75,-38"/>
<text text-anchor="middle" x="234.25" y="-20.7" font-family="Helvetica,sans-Serif" font-size="14.00">counts = [2269, 371]</text>
<text text-anchor="middle" x="234.25" y="-5.7" font-family="Helvetica,sans-Serif" font-size="14.00">class = 0</text>
</g>
<!-- 2&#45;&gt;4 -->
<g id="edge4" class="edge">
<title>2&#45;&gt;4</title>
<path fill="none" stroke="black" d="M234.25,-73.91C234.25,-66.25 234.25,-57.79 234.25,-49.88"/>
<polygon fill="black" stroke="black" points="237.75,-50 234.25,-40 230.75,-50 237.75,-50"/>
</g>
<!-- 6 -->
<g id="node7" class="node">
<title>6</title>
<polygon fill="none" stroke="black" points="423,-38 321.5,-38 321.5,0 423,0 423,-38"/>
<text text-anchor="middle" x="372.25" y="-20.7" font-family="Helvetica,sans-Serif" font-size="14.00">counts = [2, 0]</text>
<text text-anchor="middle" x="372.25" y="-5.7" font-family="Helvetica,sans-Serif" font-size="14.00">class = 0</text>
</g>
<!-- 5&#45;&gt;6 -->
<g id="edge6" class="edge">
<title>5&#45;&gt;6</title>
<path fill="none" stroke="black" d="M410.22,-73.91C404.32,-65.53 397.74,-56.19 391.74,-47.67"/>
<polygon fill="black" stroke="black" points="394.76,-45.88 386.14,-39.72 389.04,-49.92 394.76,-45.88"/>
</g>
<!-- 7 -->
<g id="node8" class="node">
<title>7</title>
<polygon fill="none" stroke="black" points="557.5,-38 441,-38 441,0 557.5,0 557.5,-38"/>
<text text-anchor="middle" x="499.25" y="-20.7" font-family="Helvetica,sans-Serif" font-size="14.00">counts = [7, 240]</text>
<text text-anchor="middle" x="499.25" y="-5.7" font-family="Helvetica,sans-Serif" font-size="14.00">class = 1</text>
</g>
<!-- 5&#45;&gt;7 -->
<g id="edge7" class="edge">
<title>5&#45;&gt;7</title>
<path fill="none" stroke="black" d="M451.11,-73.91C458.83,-65.26 467.47,-55.59 475.28,-46.84"/>
<polygon fill="black" stroke="black" points="477.68,-49.41 481.73,-39.62 472.46,-44.74 477.68,-49.41"/>
</g>
<!-- 9 -->
<g id="node10" class="node">
<title>9</title>
<polygon fill="none" stroke="black" points="806.5,-127 660,-127 660,-74 806.5,-74 806.5,-127"/>
<text text-anchor="middle" x="733.25" y="-109.7" font-family="Helvetica,sans-Serif" font-size="14.00">education &lt;= 12.5</text>
<text text-anchor="middle" x="733.25" y="-94.7" font-family="Helvetica,sans-Serif" font-size="14.00">counts = [6584, 4407]</text>
<text text-anchor="middle" x="733.25" y="-79.7" font-family="Helvetica,sans-Serif" font-size="14.00">class = 0</text>
</g>
<!-- 8&#45;&gt;9 -->
<g id="edge9" class="edge">
<title>8&#45;&gt;9</title>
<path fill="none" stroke="black" d="M733.25,-162.87C733.25,-155.24 733.25,-146.72 733.25,-138.51"/>
<polygon fill="black" stroke="black" points="736.75,-138.76 733.25,-128.76 729.75,-138.76 736.75,-138.76"/>
</g>
<!-- 12 -->
<g id="node13" class="node">
<title>12</title>
<polygon fill="none" stroke="black" points="1033.25,-127 909.25,-127 909.25,-74 1033.25,-74 1033.25,-127"/>
<text text-anchor="middle" x="971.25" y="-109.7" font-family="Helvetica,sans-Serif" font-size="14.00">education &lt;= 1.0</text>
<text text-anchor="middle" x="971.25" y="-94.7" font-family="Helvetica,sans-Serif" font-size="14.00">counts = [11, 975]</text>
<text text-anchor="middle" x="971.25" y="-79.7" font-family="Helvetica,sans-Serif" font-size="14.00">class = 1</text>
</g>
<!-- 8&#45;&gt;12 -->
<g id="edge12" class="edge">
<title>8&#45;&gt;12</title>
<path fill="none" stroke="black" d="M804.34,-162.51C833.98,-151.68 868.39,-139.1 898.23,-128.19"/>
<polygon fill="black" stroke="black" points="899.39,-131.49 907.58,-124.77 896.99,-124.92 899.39,-131.49"/>
</g>
<!-- 10 -->
<g id="node11" class="node">
<title>10</title>
<polygon fill="none" stroke="black" points="722.5,-38 576,-38 576,0 722.5,0 722.5,-38"/>
<text text-anchor="middle" x="649.25" y="-20.7" font-family="Helvetica,sans-Serif" font-size="14.00">counts = [5634, 2556]</text>
<text text-anchor="middle" x="649.25" y="-5.7" font-family="Helvetica,sans-Serif" font-size="14.00">class = 0</text>
</g>
<!-- 9&#45;&gt;10 -->
<g id="edge10" class="edge">
<title>9&#45;&gt;10</title>
<path fill="none" stroke="black" d="M706.21,-73.91C696.88,-65.08 686.42,-55.18 677.04,-46.3"/>
<polygon fill="black" stroke="black" points="679.55,-43.86 669.88,-39.53 674.74,-48.94 679.55,-43.86"/>
</g>
<!-- 11 -->
<g id="node12" class="node">
<title>11</title>
<polygon fill="none" stroke="black" points="902,-38 740.5,-38 740.5,0 902,0 902,-38"/>
<text text-anchor="middle" x="821.25" y="-20.7" font-family="Helvetica,sans-Serif" font-size="14.00">counts = [950.0, 1851.0]</text>
<text text-anchor="middle" x="821.25" y="-5.7" font-family="Helvetica,sans-Serif" font-size="14.00">class = 1</text>
</g>
<!-- 9&#45;&gt;11 -->
<g id="edge11" class="edge">
<title>9&#45;&gt;11</title>
<path fill="none" stroke="black" d="M761.58,-73.91C771.45,-64.99 782.53,-54.98 792.44,-46.03"/>
<polygon fill="black" stroke="black" points="794.59,-48.8 799.66,-39.5 789.9,-43.61 794.59,-48.8"/>
</g>
<!-- 13 -->
<g id="node14" class="node">
<title>13</title>
<polygon fill="none" stroke="black" points="1022,-38 920.5,-38 920.5,0 1022,0 1022,-38"/>
<text text-anchor="middle" x="971.25" y="-20.7" font-family="Helvetica,sans-Serif" font-size="14.00">counts = [1, 0]</text>
<text text-anchor="middle" x="971.25" y="-5.7" font-family="Helvetica,sans-Serif" font-size="14.00">class = 0</text>
</g>
<!-- 12&#45;&gt;13 -->
<g id="edge13" class="edge">
<title>12&#45;&gt;13</title>
<path fill="none" stroke="black" d="M971.25,-73.91C971.25,-66.25 971.25,-57.79 971.25,-49.88"/>
<polygon fill="black" stroke="black" points="974.75,-50 971.25,-40 967.75,-50 974.75,-50"/>
</g>
<!-- 14 -->
<g id="node15" class="node">
<title>14</title>
<polygon fill="none" stroke="black" points="1164.25,-38 1040.25,-38 1040.25,0 1164.25,0 1164.25,-38"/>
<text text-anchor="middle" x="1102.25" y="-20.7" font-family="Helvetica,sans-Serif" font-size="14.00">counts = [10, 975]</text>
<text text-anchor="middle" x="1102.25" y="-5.7" font-family="Helvetica,sans-Serif" font-size="14.00">class = 1</text>
</g>
<!-- 12&#45;&gt;14 -->
<g id="edge14" class="edge">
<title>12&#45;&gt;14</title>
<path fill="none" stroke="black" d="M1013.78,-73.69C1029.35,-64.24 1046.9,-53.59 1062.24,-44.28"/>
<polygon fill="black" stroke="black" points="1063.93,-47.35 1070.66,-39.17 1060.29,-41.37 1063.93,-47.35"/>
</g>
</g>
</svg>
